<?xml version="1.0" encoding="UTF-8"?>
<svg xmlns="http://www.w3.org/2000/svg" xmlns:xlink="http://www.w3.org/1999/xlink" width="50pt" height="50pt" viewBox="0 0 50 50" version="1.1">
<g id="surface1">
<path style=" stroke:none;fill-rule:nonzero;fill:rgb(83.529412%,65.490196%,23.921569%);fill-opacity:1;" d="M 1.625 41.003906 L 48.972656 41.003906 L 48.972656 43.0625 L 1.625 43.0625 Z M 1.625 41.003906 "/>
<path style=" stroke:none;fill-rule:nonzero;fill:rgb(83.529412%,65.490196%,23.921569%);fill-opacity:1;" d="M 48.25 8.574219 C 44.8125 6.566406 40.902344 7.636719 38.234375 8.882812 L 30.269531 12.597656 L 16.570312 5.703125 L 8.410156 6.050781 L 19.71875 17.515625 L 12.515625 20.945312 L 5.011719 18.09375 L 0 20.429688 L 4.539062 26.058594 C 4.054688 26.636719 3.621094 27.4375 4.023438 28.285156 C 4.539062 29.382812 6.0625 29.941406 8.5625 29.941406 C 9.078125 29.941406 9.632812 29.917969 10.21875 29.867188 C 12.957031 29.652344 15.933594 28.953125 17.796875 28.085938 L 46.265625 14.8125 C 48.722656 13.667969 49.949219 12.464844 50.011719 11.125 C 50.03125 10.457031 49.753906 9.449219 48.25 8.574219 Z M 45.378906 12.957031 L 16.910156 26.234375 C 15.324219 26.976562 12.730469 27.59375 10.292969 27.808594 C 7.800781 28.035156 6.464844 27.746094 6.019531 27.511719 C 6.113281 27.386719 6.277344 27.191406 6.597656 26.914062 L 7.339844 26.265625 L 3.253906 21.191406 L 5.105469 20.328125 L 12.609375 23.1875 L 23.230469 18.144531 L 13.144531 7.914062 L 16.128906 7.792969 L 30.238281 14.882812 L 39.109375 10.746094 C 42.351562 9.230469 45.082031 9.097656 47.222656 10.355469 C 47.757812 10.671875 47.953125 10.941406 47.941406 11.054688 C 47.941406 11.054688 47.878906 11.796875 45.378906 12.957031 Z M 45.378906 12.957031 "/>
</g>
</svg>
